<svg id="Layer_1" data-name="Layer 1" xmlns="http://www.w3.org/2000/svg" viewBox="0 0 48 48"><defs><style>.cls-1{fill:#fff;}</style></defs><title>twitter-48</title><path class="cls-1" d="M17.58,41c15.09,0,23.35-12.69,23.35-23.7q0-.54,0-1.08A16.84,16.84,0,0,0,45,11.91a16.19,16.19,0,0,1-4.71,1.31A8.34,8.34,0,0,0,43.9,8.61a16.3,16.3,0,0,1-5.21,2,8.14,8.14,0,0,0-6-2.63,8.27,8.27,0,0,0-8.21,8.33,8.44,8.44,0,0,0,.21,1.9A23.19,23.19,0,0,1,7.78,9.53a8.42,8.42,0,0,0,2.54,11.12,8.05,8.05,0,0,1-3.72-1s0,.07,0,.11a8.3,8.3,0,0,0,6.58,8.17A8.07,8.07,0,0,1,9.48,28a8.23,8.23,0,0,0,7.67,5.79A16.4,16.4,0,0,1,5,37.26,23,23,0,0,0,17.58,41"/></svg>