<svg id="Layer_1" data-name="Layer 1" xmlns="http://www.w3.org/2000/svg" viewBox="0 0 24 24"><defs><style>.cls-1{fill:#fff;}</style></defs><title>twitter-24</title><path class="cls-1" d="M8.6,21A12.15,12.15,0,0,0,20.86,8.79c0-.19,0-.37,0-.55A8.75,8.75,0,0,0,23,6a8.63,8.63,0,0,1-2.47.68,4.31,4.31,0,0,0,1.89-2.37,8.65,8.65,0,0,1-2.74,1,4.31,4.31,0,0,0-7.45,2.94,4.27,4.27,0,0,0,.11,1A12.25,12.25,0,0,1,3.46,4.79,4.28,4.28,0,0,0,4.8,10.52a4.29,4.29,0,0,1-2-.54s0,0,0,.05A4.3,4.3,0,0,0,6.3,14.24a4.32,4.32,0,0,1-1.95.07,4.31,4.31,0,0,0,4,3A8.67,8.67,0,0,1,3,19.13a8.81,8.81,0,0,1-1-.06A12.23,12.23,0,0,0,8.6,21"/></svg>